<?xml version="1.0" encoding="utf-8"?>
<svg viewBox="-84.671 -61.671 296.525 494.704" xmlns="http://www.w3.org/2000/svg">
  <g transform="matrix(0.1, 0, 0, -0.1, -185.832858, 433.192542)" fill="#000000" stroke="none">
    <path d="M1930 4936 c-164 -44 -275 -164 -300 -322 -6 -38 -19 -80 -29 -94 -10 -14 -49 -37 -94 -55 -143 -56 -219 -133 -258 -259 -24 -77 -22 -137 7 -230 22 -71 13 -93 -58 -139 -95 -61 -155 -149 -179 -264 -11 -52 -10 -69 5 -124 10 -35 34 -91 54 -124 50 -81 50 -130 1 -200 -19 -28 -43 -82 -54 -120 -16 -60 -17 -76 -6 -129 17 -81 53 -149 112 -212 67 -70 74 -99 48 -194 -65 -229 77 -444 323 -489 69 -12 102 -32 116 -69 5 -15 17 -48 26 -73 57 -159 192 -256 373 -267 149 -8 288 56 367 171 67 97 66 86 66 730 l0 579 -57 -7 c-32 -4 -121 -17 -198 -30 -77 -13 -143 -20 -147 -16 -3 3 86 355 198 781 227 858 222 832 170 942 -29 62 -110 145 -174 177 -94 48 -219 63 -312 37z" style="fill: rgb(255, 255, 255);"/>
    <path d="M2841 4934 c-120 -32 -218 -113 -269 -222 l-27 -57 -3 -602 c-3 -574 -2 -603 15 -603 10 0 99 13 198 29 99 16 184 26 188 22 4 -4 -85 -360 -198 -790 -200 -761 -206 -784 -195 -833 24 -115 108 -215 228 -271 63 -30 74 -32 177 -32 103 0 114 2 177 32 116 55 198 150 228 263 19 74 46 95 145 115 189 40 315 180 324 357 2 53 -2 92 -13 124 -19 56 -21 107 -5 137 7 12 33 45 59 73 60 63 85 113 100 192 18 100 4 150 -83 305 -22 40 -18 60 40 174 44 87 47 97 46 170 0 55 -7 95 -22 135 -26 68 -101 154 -167 193 -62 37 -69 60 -43 147 63 206 -48 405 -266 478 -79 26 -96 46 -106 119 -14 100 -45 167 -108 230 -31 32 -75 68 -98 80 -98 49 -219 63 -322 35z" style="fill: rgb(255, 255, 255);"/>
    <path d="M1273 1055 c-33 -33 -35 -39 -30 -82 7 -65 49 -103 112 -103 35 0 52 6 77 29 29 26 33 35 33 81 0 46 -4 55 -33 81 -26 23 -42 29 -78 29 -39 0 -51 -5 -81 -35z" style="fill: rgb(255, 255, 255);"/>
    <path d="M2092 918 l3 -62 45 0 45 -1 3 -84 3 -83 -41 34 c-48 42 -98 58 -177 58 -83 0 -145 -24 -207 -81 -95 -87 -138 -232 -117 -391 26 -191 123 -294 289 -305 83 -6 136 7 201 52 l51 34 0 -28 c0 -47 13 -51 162 -51 l138 0 0 59 0 60 -42 3 -43 3 -3 423 -2 422 -156 0 -155 0 3 -62z m51 -306 l47 -21 -2 -198 -3 -198 -55 -32 c-144 -87 -259 -3 -268 197 -11 225 106 329 281 252z" style="fill: rgb(255, 255, 255);"/>
    <path d="M3460 875 l0 -105 -35 0 -35 0 0 -65 0 -65 35 0 35 0 0 -299 c0 -259 2 -302 16 -315 13 -13 44 -16 185 -16 l169 0 0 60 0 59 -77 3 -78 3 -3 252 -2 252 77 3 78 3 3 62 3 62 -78 3 -78 3 -3 103 -3 102 -104 0 -105 0 0 -105z" style="fill: rgb(255, 255, 255);"/>
    <path d="M2785 774 c-11 -3 -50 -14 -87 -25 l-68 -20 0 -79 0 -80 50 0 c30 0 52 5 57 13 26 44 147 70 216 48 55 -18 77 -53 77 -120 l0 -56 -137 0 c-131 0 -141 -1 -196 -28 -80 -40 -110 -86 -115 -179 -7 -125 43 -201 155 -234 97 -28 200 -8 266 54 l27 26 0 -26 c0 -51 19 -58 161 -58 l129 0 0 59 0 60 -37 3 -38 3 -5 250 c-3 154 -10 260 -17 275 -14 32 -58 73 -103 96 -28 15 -62 19 -175 20 -77 2 -149 1 -160 -2z m208 -430 l37 -7 0 -78 0 -78 -43 -26 c-48 -27 -109 -33 -151 -14 -27 12 -56 63 -56 97 0 88 80 127 213 106z" style="fill: rgb(255, 255, 255);"/>
    <path d="M1152 708 l3 -63 48 -3 47 -3 0 -255 0 -254 -45 0 -45 0 0 -60 0 -60 198 2 197 3 3 57 3 57 -48 3 -48 3 -3 318 -2 317 -156 0 -155 0 3 -62z" style="fill: rgb(255, 255, 255);"/>
  </g>
</svg>