<?xml version="1.0" encoding="utf-8"?>
<svg viewBox="-357.661 67.534 1268.581 249.1" xmlns="http://www.w3.org/2000/svg">
  <g transform="matrix(0.1, 0, 0, -0.1, -362.660589, 319.533818)" fill="#000000" stroke="none">
    <path d="M3240 1655 l0 -865 160 0 160 0 0 865 0 865 -160 0 -160 0 0 -865z" style="fill: rgb(255, 255, 255);"/>
    <path d="M5242 1823 l3 -698 23 -64 c30 -82 58 -126 115 -178 55 -51 104 -77 183 -96 186 -47 356 -22 428 63 24 29 26 38 26 131 0 111 6 106 -85 84 -72 -18 -175 -19 -230 -4 -52 15 -119 82 -134 134 -7 26 -11 158 -11 367 l0 326 168 4 c189 3 228 15 269 77 19 28 23 47 23 117 l0 84 -230 0 -230 0 0 175 0 175 -160 0 -161 0 3 -697z" style="fill: rgb(255, 255, 255);"/>
    <path d="M269 2486 c-83 -29 -147 -86 -191 -169 l-23 -42 -3 -1123 -2 -1123 1102 3 c1017 3 1106 4 1146 20 90 36 164 110 199 199 17 41 18 120 21 1147 l2 1102 -1107 0 c-880 -1 -1115 -4 -1144 -14z m1671 -1075 c0 -419 -4 -662 -10 -666 -8 -5 -1283 -255 -1302 -255 -5 0 -8 299 -8 665 0 523 3 667 13 670 12 5 1272 242 1295 244 9 1 12 -137 12 -658z" style="fill: rgb(255, 255, 255);"/>
    <path d="M8650 2170 c-192 -51 -323 -159 -410 -335 -62 -125 -75 -186 -75 -365 0 -137 3 -164 24 -229 52 -157 183 -306 334 -379 128 -62 192 -75 344 -70 141 6 219 25 311 78 l52 30 0 110 c0 61 -3 110 -7 110 -5 0 -30 -9 -58 -19 -74 -28 -193 -44 -284 -39 -196 11 -333 151 -362 368 -28 203 61 379 229 458 53 25 66 27 182 26 121 -2 145 -6 283 -51 15 -5 17 4 17 105 l0 109 -40 27 c-22 14 -75 38 -117 53 -109 37 -311 43 -423 13z" style="fill: rgb(255, 255, 255);"/>
    <path d="M9835 2176 c-285 -55 -465 -269 -506 -598 -22 -176 1 -321 73 -468 119 -245 389 -365 686 -304 274 56 451 274 481 592 35 376 -137 677 -439 766 -77 23 -211 28 -295 12z m220 -306 c114 -49 175 -163 191 -355 18 -221 -58 -379 -202 -421 -139 -40 -283 18 -346 140 -61 118 -64 360 -7 492 21 50 81 119 122 140 68 36 166 37 242 4z" style="fill: rgb(255, 255, 255);"/>
    <path d="M12025 2183 c-233 -32 -405 -174 -481 -395 -47 -138 -54 -225 -54 -712 0 -307 4 -461 11 -487 29 -96 110 -150 237 -157 l82 -5 0 260 0 259 58 -57 c129 -125 338 -143 538 -44 131 64 244 218 288 392 28 108 39 267 27 366 -37 283 -225 516 -462 572 -60 14 -174 18 -244 8z m198 -326 c90 -38 143 -126 167 -279 14 -84 9 -239 -9 -298 -18 -61 -74 -143 -119 -175 -38 -26 -54 -30 -120 -33 -71 -4 -82 -1 -142 30 -75 39 -125 102 -156 195 -26 81 -27 305 -1 379 64 185 209 254 380 181z" style="fill: rgb(255, 255, 255);"/>
    <path d="M4245 2154 c-206 -45 -355 -181 -421 -384 -16 -49 -18 -106 -22 -517 l-3 -463 160 0 161 0 0 408 c0 267 4 428 11 466 17 81 64 154 123 191 46 28 57 30 140 30 81 0 97 -3 141 -28 56 -31 94 -79 121 -152 17 -45 19 -91 22 -482 l3 -433 160 0 159 0 0 414 c0 328 -3 432 -15 502 -38 216 -162 360 -375 436 -76 27 -268 34 -365 12z" style="fill: rgb(255, 255, 255);"/>
    <path d="M6568 2155 c-88 -19 -146 -43 -220 -92 -188 -123 -290 -338 -291 -613 -1 -213 52 -349 188 -485 116 -116 233 -173 401 -196 147 -19 370 13 451 66 22 15 23 21 23 135 l0 121 -28 -15 c-83 -43 -289 -67 -396 -47 -156 29 -282 137 -302 257 l-6 42 258 5 c189 4 279 10 333 22 203 45 281 129 281 300 0 239 -164 444 -401 500 -76 18 -211 18 -291 0z m280 -279 c65 -33 103 -87 110 -156 13 -136 -66 -170 -395 -170 l-184 0 7 53 c18 154 103 266 227 298 62 16 179 3 235 -25z" style="fill: rgb(255, 255, 255);"/>
    <path d="M7765 2152 c-130 -39 -219 -111 -274 -221 -59 -116 -62 -149 -66 -668 l-3 -473 164 0 164 0 0 438 c0 359 3 447 15 489 35 118 99 165 237 171 l88 4 0 123 0 122 -27 13 c-46 22 -227 23 -298 2z" style="fill: rgb(255, 255, 255);"/>
    <path d="M11090 2155 c-165 -46 -267 -148 -326 -325 -16 -49 -18 -104 -22 -547 l-3 -493 160 0 160 0 4 453 c4 500 3 497 69 572 49 56 114 79 204 73 l64 -4 0 128 0 128 -27 12 c-45 18 -220 20 -283 3z" style="fill: rgb(255, 255, 255);"/>
  </g>
</svg>